{"title":"Rabbit.Hole.2010.SCR.XviD..vice","uid":6031380,"size":745456652,"categoryP":"video","categoryS":"movies","magnet":"?xt=urn:btih:e1acf2c5ddef664b0b6cfa5afde74cf45c736bd2&amp;dn=Rabbit.Hole.2010.SCR.XviD..vice&amp;tr=udp%3A%2F%2Ftracker.openbittorrent.com%3A80&amp;tr=udp%3A%2F%2Fopen.demonii.com%3A1337&amp;tr=udp%3A%2F%2Ftracker.coppersurfer.tk%3A6969&amp;tr=udp%3A%2F%2Fexodus.desync.com%3A6969","seeders":0,"leechers":0,"uploader":"vicerock","files":-1,"time":1292093375,"description":"Format : AVI\nFormat/Info : Audio Video Interleave\nFormat profile : OpenDML\nFile size : 697 MiB\nDuration : 1h 31mn\nOverall bit rate : 1 067 Kbps\nWriting application : AVI-Mux GUI 1.17.8.3, Feb 16 201019:42:50\n\nVideo\nID : 0\nFormat : MPEG-4 Visual\nFormat profile : AdvancedSimple@L5\nFormat settings, BVOP : Yes\nFormat settings, QPel : No\nFormat settings, GMC : No warppoints\nFormat settings, Matrix : Default (H.263)\nCodec ID : XVID\nCodec ID/Hint : XviD\nDuration : 1h 31mn\nBit rate : 614 Kbps\nWidth : 704 pixels\nHeight : 384 pixels\nDisplay aspect ratio : 16:9\nFrame rate : 23.976 fps\nResolution : 24 bits\nColorimetry : 4:2:0\nScan type : Progressive\nBits/(Pixel*Frame) : 0.095\nStream size : 401 MiB (58%)\nWriting library : XviD 1.2.1 (UTC 2008-12-04)\n\nAudio\nID : 1\nFormat : AC-3\nFormat/Info : Audio Coding 3\nCodec ID : 2000\nDuration : 1h 31mn\nBit rate mode : Constant\nBit rate : 448 Kbps\nChannel(s) : 2 channels\nChannel positions : L R\nSampling rate : 48.0 KHz\nStream size : 293 MiB (42%)\nAlignment : Aligned on interleaves\nInterleave, duration : 64 ms (1.53 video frames)\nInterleave, preload duration : 192 ms\n\nStarring\nNicole Kidman\nAaron Eckhart\nDianne Wiest\nTammy Blanchard\nMiles Teller\nSandra Oh\n\nEight months after the death of their young son, Danny, Becca (Nicole Kidman) and Howie Corbett (Aaron Eckhart) continue to cope with their grief. Both begin platonic relationships: Becca becomes closer acquainted with the teenage driver who accidentally hit the boy, while Howie smokes cannabis with an acquaintance from a bereavement support group.\n &lt;a href=&quot;\nhttp://www.imdb.com/title/tt0935075/&quot; rel=&quot;nofollow&quot; target=&quot;_NEW&quot;&gt;\nhttp://www.imdb.com/title/tt0935075/&lt;/a&gt;\n\nscreens\n &lt;a href=&quot;\nhttp://img571.imageshack.us/img571/1692/rabitholexvidviceavisna.jpg&quot; rel=&quot;nofollow&quot; target=&quot;_NEW&quot;&gt;\nhttp://img571.imageshack.us/img571/1692/rabitholexvidviceavisna.jpg&lt;/a&gt; &lt;a href=&quot;\nhttp://img577.imageshack.us/img577/1692/rabitholexvidviceavisna.jpg&quot; rel=&quot;nofollow&quot; target=&quot;_NEW&quot;&gt;\nhttp://img577.imageshack.us/img577/1692/rabitholexvidviceavisna.jpg&lt;/a&gt; &lt;a href=&quot;\nhttp://img840.imageshack.us/img840/1692/rabitholexvidviceavisna.jpg&quot; rel=&quot;nofollow&quot; target=&quot;_NEW&quot;&gt;\nhttp://img840.imageshack.us/img840/1692/rabitholexvidviceavisna.jpg&lt;/a&gt; &lt;a href=&quot;\nhttp://img718.imageshack.us/img718/1692/rabitholexvidviceavisna.jpg&quot; rel=&quot;nofollow&quot; target=&quot;_NEW&quot;&gt;\nhttp://img718.imageshack.us/img718/1692/rabitholexvidviceavisna.jpg&lt;/a&gt;","torrent":{"xt":"urn:btih:e1acf2c5ddef664b0b6cfa5afde74cf45c736bd2","amp;dn":"Rabbit.Hole.2010.SCR.XviD..vice","amp;tr":["udp%3A%2F%2Ftracker.openbittorrent.com%3A80","udp%3A%2F%2Fopen.demonii.com%3A1337","udp%3A%2F%2Ftracker.coppersurfer.tk%3A6969","udp%3A%2F%2Fexodus.desync.com%3A6969"],"infoHash":"e1acf2c5ddef664b0b6cfa5afde74cf45c736bd2","infoHashBuffer":{"type":"Buffer","data":[225,172,242,197,221,239,102,75,11,108,250,90,253,231,76,244,92,115,107,210]},"announce":[],"urlList":[]}}